<?xml version="1.0" encoding="utf-8"?>
<!DOCTYPE svg PUBLIC "-//W3C//DTD SVG 1.1//EN" "http://www.w3.org/Graphics/SVG/1.1/DTD/svg11.dtd">
<svg version="1.1" xmlns="http://www.w3.org/2000/svg" xmlns:xlink="http://www.w3.org/1999/xlink" id="hancock_logo" width="2925" height="512" viewBox="0 0 2925 512">
<path fill="#fff" d="M272.303 133.032l67.375 59.112 11.639-6.226 34.906-133.816 3.2-11.226-201.31-38.169 73.832 121.192 10.36 9.135zM618.658 125.816h55.506v97.921h122.706v-97.921h55.506v260.424h-55.506v-107.695h-122.648v107.695h-55.506v-260.424zM2527.032 218.095l26.881 2.734c-2.232 15.304-9.528 28.6-20.088 38.424-9.416 7.832-21.576 12.561-34.848 12.561-0.441 0-0.889-0.009-1.334-0.016-0.696 0.040-1.592 0.065-2.49 0.065-16.936 0-31.96-8.184-41.329-20.81-9.769-13.622-15.56-30.448-15.56-48.632 0-0.935 0.015-1.863 0.043-2.784-0.040-0.776-0.063-1.839-0.063-2.91 0-18.44 6.36-35.385 17-48.782 10.113-12.36 25.56-20.296 42.857-20.296 0.68 0 1.353 0.009 2.030 0.040q45.168-0.006 53.782 47.704l-26.881 3.666q-3.494-25.72-25.368-25.774c-0.414-0.024-0.903-0.040-1.385-0.040-9.633 0-17.945 5.64-21.823 13.8-4.632 9.352-7.305 20.192-7.305 31.656 0 0.744 0.008 1.487 0.034 2.226-0.056 0.832-0.088 1.928-0.088 3.034 0 10.632 2.84 20.601 7.8 29.192 4.018 6.729 11.559 11.359 20.175 11.359 0.177 0 0.354-0.002 0.53-0.008 13.646 0 22.778-8.785 27.258-26.414v0zM2784.258 268.946h-32.76v-86.168q0-26.881-23.854-26.824c-0.296-0.008-0.647-0.018-0.992-0.018-8.52 0-16.12 3.937-21.079 10.088-5.288 7.53-8.426 16.824-8.426 26.856 0 1.215 0.046 2.423 0.136 3.608l-0.008 72.456h-33.16v-86.168c0-18.152-7.448-27.288-22.344-27.288-0.056-0-0.127-0-0.199-0-9.129 0-17.266 4.28-22.504 10.936-5.864 7.537-9.368 17.058-9.368 27.4 0 0.887 0.024 1.761 0.073 2.632l-0.008 72.488h-32.232v-138.36h30.312v29.44q14.776-32.346 46.135-32.346t39.736 32.346q16.696-32.346 46.135-32.346c0.664-0.040 1.448-0.056 2.232-0.056 23.296 0 42.184 18.888 42.184 42.184 0 0.472-0.008 0.936-0.024 1.407l0.002 97.736zM2805.202 237.12l29.095-5.816q6.746 16.815 29.615 16.815 29.095 0 29.095-17.106c0.001-0.038 0.001-0.073 0.001-0.12 0-3.647-1.775-6.879-4.505-8.879-3-2.367-6.599-4.057-10.52-4.824l-25.352-4.793q-41.946-8.088-41.946-40.728c-0.006-0.192-0.008-0.423-0.008-0.648 0-12.040 5.096-22.891 13.247-30.52 8.923-8.52 22.072-12.824 39.646-12.824q43.814 0 53.586 32.232l-27.814 5.816c-2.968-10.415-11.226-15.592-24.904-15.592q-24.96 0-24.96 15.592c0 7.214 6.746 12.216 20.135 14.894l29.672 5.704q34.906 7.16 34.906 39.736c0.039 0.616 0.056 1.336 0.056 2.063 0 13.482-7.066 25.32-17.704 31.999-11.662 7.192-25.608 11.4-40.536 11.4-0.678 0-1.351-0.009-2.019-0.024-0.298 0.009-0.776 0.010-1.242 0.010-13.198 0-25.655-3.19-36.632-8.832-9.944-4.967-17.691-14.152-20.833-25.274l-0.072-0.287zM1051.243 168.584l72.026 217.656h-58.824l-65.224-201.776c-0.75-2.712-2.12-5.048-3.96-6.927-1.606-1.375-3.704-2.216-6.008-2.216-0.12 0-0.232 0.002-0.35 0.008-0.056-0.006-0.149-0.007-0.232-0.007-2.15 0-4.104 0.822-5.576 2.162-1.784 1.84-3.091 4.168-3.698 6.76l-65.303 201.992h-59.112l71.624-217.656c4.21-14.686 12.337-27.128 23.176-36.52 10.158-7.398 22.76-11.784 36.393-11.784 1.006 0 2.008 0.024 3 0.072 0.689-0.041 1.663-0.070 2.64-0.070 13.934 0 26.809 4.52 37.25 12.168 10.728 9 18.664 21.336 22.184 35.425l0.101 0.466zM1264.833 180.506l39.272 138.008c1.192 5.551 3.464 10.44 6.584 14.648 2.191 2.106 5.288 3.471 8.705 3.471 0.266 0 0.536-0.009 0.802-0.024 0.217 0.023 0.52 0.031 0.824 0.031 3.765 0 7.144-1.624 9.487-4.207 2.256-3.057 3.608-6.888 3.608-11.031 0-0.464-0.017-0.92-0.050-1.378l0.006-194.209h55.506v200.615q0 30.546-17.92 47.825t-50.040 17.454q-29.094 0-45.321-13.56c-10.761-9.016-19.32-24.495-25.544-46.546l-39.215-138.296c-1.144-5.496-3.353-10.344-6.416-14.536-2.186-2.104-5.288-3.464-8.703-3.464-0.266 0-0.536 0.008-0.802 0.024-0.264-0.024-0.608-0.040-0.958-0.040-3.704 0-7.048 1.558-9.416 4.047-2.216 2.984-3.545 6.737-3.545 10.798 0 0.482 0.022 0.958 0.056 1.432l-0.007 194.673h-55.561v-201.192q0-30.374 17.976-47.48t50.040-16.986q29.094 0 45.321 13.559c10.761 9.016 19.32 24.494 25.544 46.546v0zM1503.781 125.64h114.909v54.401h-109.615c-0.712-0.056-1.535-0.088-2.37-0.088-8.048 0-15.384 3.034-20.935 8.024-4.904 5.608-7.912 13.032-7.912 21.16 0 0.839 0.032 1.665 0.094 2.488l-0.008 88.68c-0.152 1.081-0.233 2.337-0.233 3.608 0 15.327 12.425 27.752 27.752 27.752 1.272 0 2.526-0.088 3.752-0.248l109.416 0.016v54.808h-114.854q-38.107 0-59.752-21.704t-21.64-60.041v-97.336q0-38.281 21.64-59.866t59.752-21.528v0zM1732.436 175.16c-0.681-0.056-1.48-0.086-2.288-0.086-8.072 0-15.434 3.032-21.016 8.024-4.903 5.512-7.912 12.856-7.912 20.898 0 0.824 0.032 1.643 0.094 2.456l-0.008 98.802c-0.152 1.081-0.233 2.337-0.233 3.608 0 15.327 12.425 27.752 27.752 27.752 1.272 0 2.526-0.088 3.752-0.248l73.752 0.016c1.081 0.152 2.337 0.233 3.608 0.233 15.328 0 27.752-12.425 27.752-27.752 0-1.272-0.088-2.526-0.248-3.752l0.016-98.767c0.056-0.703 0.088-1.522 0.088-2.345 0-8.042-3.015-15.384-7.97-20.953-5.52-4.934-12.888-7.961-20.954-7.961-0.808 0-1.607 0.030-2.392 0.088l-73.784-0.008zM1727.145 120.345h84.361q38.344 0 59.928 21.641t21.64 59.752v107.87q0 38.281-21.64 60.041t-59.928 21.816h-84.424q-38.107 0-59.695-21.816t-21.64-60.041v-107.695q0-38.168 21.64-59.752t59.695-21.641v0zM2006.012 125.585h114.91v54.401h-109.615c-0.712-0.056-1.535-0.088-2.37-0.088-8.048 0-15.384 3.034-20.935 8.024-4.904 5.608-7.912 13.032-7.912 21.16 0 0.839 0.032 1.665 0.094 2.488l-0.008 88.735c-0.152 1.081-0.233 2.337-0.233 3.608 0 15.327 12.425 27.752 27.752 27.752 1.272 0 2.526-0.088 3.752-0.248l109.416 0.016v54.808h-114.909q-38.107 0-59.752-21.704t-21.64-60.041v-97.336q0-38.281 21.64-59.866t59.752-21.528v0zM2149.49 125.585h55.506v98.152h38.632q31.535 0 44.334-6.456c8.705-4.392 15.104-12.28 17.408-21.768l19.656-69.695h58.184l-24.728 83.201c-3.096 11.512-9.361 21.281-17.793 28.625-8.744 7.095-19.545 11.831-31.383 13.178 12.887 0.962 24.84 5.442 34.842 12.504 7.521 6.199 14.27 19.112 20.146 38.839l25.425 84.072h-59.345l-19.72-72.376q-5.816-20.826-18.039-28.104t-46.080-7.272h-41.425v107.752h-55.506v-260.424zM25.259 375.768l-7.561 8.841 164.888 121.72-13.96-141.269-5.352-12.68-35.374-83.546-12.104 0.346-90.648 106.648zM10.658 158.344l140.455 5.816 8.84 10.535-50.792 92.392-100.306 97.575-7.736-206.721 9.544 0.408zM0.821 149.559v4.774l0.408-4.186v-1.161l-0.408 0.584zM173.569 16.144l83.256 110.952-2.504 13.095-100.306 17.864-140.8-19.144 153.426-132.015 6.921 9.254zM174.435 0.144v0zM399.546 42.733v0zM491.24 240.84l-126.664 56.026-12.216-5.352 4.361-89.601 0.64-13.734 48.696-133.176 95.707 181.176-10.534 4.655zM408.851 440.469l10.24 5.352 82.094-187.87-134.695 45.094-84.015 60.454 3.432 12.974 122.936 64zM401.584 458.792l-197.935 53.352-2.214-11.639-26.586-135.975 7.912-10.76 99.666 27.928 119.16 77.147zM235.008 265.688v0l-56.84 76.975-10.648-3.080-29.559-71.041 97.048-2.854zM246.178 267.784l-57.425 77.906 73.135 21 9.079-6.456-24.786-92.454zM254.849 260.334v0l87.68 38.226-0.584 11.055-61.848 44.28-25.016-93.44zM254.436 248.696l84.536-44.68 8.32 7.386-4.186 76.28-88.666-38.695zM261.713 154.792l1.28-6.865 10.936-1.864 56.841 50.616-85.586 45.56 16.466-87.272zM234.193 245.146v0l-62.081-72.146 5.816-10.12 74.472-12.744-18.214 95.014zM245.249 242.184v0 0zM229.65 255.624l-95.592 3.546-4.248-10.184 36.946-66.441z"></path>
</svg>
